HIERARCHY
ROOT Hips
{
     OFFSET 16.75390 94.58540 -5.81028
     CHANNELS 6 Xposition Yposition Zposition Zrotation Xrotation Yrotation
     JOINT Spine
     {
          OFFSET -0.00000 11.89050 -0.00000
          CHANNELS 3 Zrotation Xrotation Yrotation
          JOINT Spine1
          {
               OFFSET -0.00000 25.65740 0.12766
               CHANNELS 3 Zrotation Xrotation Yrotation
               JOINT HEad
               {
                    OFFSET -0.00000 8.73416 0.01134
                    CHANNELS 3 Zrotation Xrotation Yrotation
                    End Site
                    {
                         OFFSET -0.29000 12.77420 2.51395
                    }
               }
               JOINT LeftShoulder1
               {
                    OFFSET 8.99000 -0.36225 -0.22000
                    CHANNELS 3 Zrotation Xrotation Yrotation
                    JOINT LeftArm
                    {
                         OFFSET 10.28270 -0.00338 0.32212
                         CHANNELS 3 Zrotation Xrotation Yrotation
                         JOINT LeftForeArm
                         {
                              OFFSET 32.76690 0.09914 -1.42434
                              CHANNELS 3 Zrotation Xrotation Yrotation
                              JOINT LeftHand
                              {
                                   OFFSET 27.56430 0.08536 1.02216
                                   CHANNELS 3 Zrotation Xrotation Yrotation
                                   End Site
                                   {
                                        OFFSET 16.74430 -0.60000 1.50291
                                   }
                              }
                         }
                    }
               }
               JOINT RightShoulder
               {
                    OFFSET -8.99000 -0.36225 -0.22000
                    CHANNELS 3 Zrotation Xrotation Yrotation
                    JOINT RightArm
                    {
                         OFFSET -10.28270 -0.00338 0.32212
                         CHANNELS 3 Zrotation Xrotation Yrotation
                         JOINT RightForeArm
                         {
                              OFFSET -32.89710 0.09914 -1.42434
                              CHANNELS 3 Zrotation Xrotation Yrotation
                              JOINT RightHand
                              {
                                   OFFSET -27.49210 0.08536 1.02216
                                   CHANNELS 3 Zrotation Xrotation Yrotation
                                   End Site
                                   {
                                        OFFSET -16.63120 -0.60000 1.50291
                                   }
                              }
                         }
                    }
               }
          }
     }
     JOINT LeftUpLeg
     {
          OFFSET 8.94580 -8.66707 0.10165
          CHANNELS 3 Zrotation Xrotation Yrotation
          JOINT LeftLeg
          {
               OFFSET 0.00000 -44.42270 1.37270
               CHANNELS 3 Zrotation Xrotation Yrotation
               JOINT LeftFoot
               {
                    OFFSET -0.25355 -42.09240 -1.46059
                    CHANNELS 3 Zrotation Xrotation Yrotation
                    JOINT LeftToes
                    {
                         OFFSET -0.04000 -4.41509 8.49910
                         CHANNELS 3 Zrotation Xrotation Yrotation
                         End Site
                         {
                              OFFSET 0.08000 -0.04745 9.77979
                         }
                    }
               }
          }
     }
     JOINT RightUpLeg
     {
          OFFSET -8.94580 -8.66707 0.10165
          CHANNELS 3 Zrotation Xrotation Yrotation
          JOINT RightLeg
          {
               OFFSET -0.00000 -44.42270 1.37270
               CHANNELS 3 Zrotation Xrotation Yrotation
               JOINT RightFoot
               {
                    OFFSET 0.25355 -42.09240 -1.46059
                    CHANNELS 3 Zrotation Xrotation Yrotation
                    JOINT RightToes
                    {
                         OFFSET 0.04000 -4.41509 8.49910
                         CHANNELS 3 Zrotation Xrotation Yrotation
                         End Site
                         {
                              OFFSET -0.08000 -0.13745 9.77979
                         }
                    }
               }
          }
     }
}
MOTION
Frames: 8
Frame Time: 0.01667
16.75390 94.58540 -5.81028 -9.54762 -11.88260 -34.34260 -2.08591 11.23770 -0.98963 -1.04519 22.23850 -1.96594 6.87856 -18.40790 18.54980 -0.00000 0.00000 -0.00000 -101.67500 -62.82630 -87.90530 -26.48620 40.68610 -78.30710 15.29760 8.45362 -7.07824 9.48169 0.63820 2.13652 87.33570 -0.43905 78.30800 6.11913 30.80310 97.64350 16.49170 11.30040 5.06223 27.43890 -8.92920 -19.68500 -31.04120 9.12522 78.01860 -4.54041 15.06280 0.79045 8.63163 -7.40244 -52.27900 -23.39280 13.50030 18.06760 36.49830 5.64751 -27.57690 -33.13010 -2.64023 1.36273 7.14611 -41.09670 14.47870 
16.73880 94.67070 -5.52450 -9.23818 -11.81810 -33.54180 -2.27026 11.15130 -0.91772 -1.15257 22.01680 -1.85716 6.80982 -18.43540 18.12250 -0.00000 0.00000 -0.00000 -99.78510 -62.09790 -86.37630 -26.34210 40.00200 -78.34010 15.37980 8.42977 -7.19973 9.54070 0.65355 2.24073 87.31000 -0.50021 78.14670 6.21833 30.42730 96.84580 16.13850 11.29010 5.19040 27.26520 -9.73440 -18.53700 -31.05650 9.39141 79.04080 -4.97944 14.34960 0.85066 8.68237 -6.70228 -51.47690 -23.84430 14.36160 18.17330 36.65460 4.18153 -27.19810 -32.78870 -2.77692 1.30519 6.56774 -39.53120 13.71220 
16.73560 94.67970 -5.14099 -8.92864 -11.71650 -32.66160 -2.32558 11.04620 -0.87414 -1.23202 21.77500 -1.76145 6.70766 -18.45080 17.65080 -0.00000 0.00000 -0.00000 -97.50790 -61.26580 -84.52610 -26.08270 39.11910 -78.45230 15.40190 8.40576 -7.36892 9.58721 0.67535 2.39806 87.38870 -0.51542 77.95200 6.59818 30.02910 95.73520 15.80360 11.27640 5.28986 27.06410 -10.60120 -17.63350 -30.98750 9.49976 79.71630 -5.84607 12.97300 0.95505 8.79261 -5.75607 -50.77050 -24.25600 15.08520 18.30350 36.86330 3.05614 -26.99000 -32.24150 -3.15502 1.16778 6.00854 -37.85900 12.99800 
16.73890 94.60460 -4.66063 -8.63925 -11.58810 -31.72590 -2.25069 10.93050 -0.84638 -1.29447 21.53460 -1.65285 6.55143 -18.44870 17.08890 -0.00000 0.00000 -0.00000 -95.33820 -60.42940 -82.79790 -25.77300 38.32120 -78.59090 15.38310 8.39096 -7.49903 9.66022 0.70295 2.59146 87.54880 -0.44034 77.76370 7.29866 29.58950 94.29850 15.47310 11.25800 5.35627 26.85720 -11.49380 -16.93500 -30.80480 9.44031 79.83740 -6.94686 11.23810 1.05877 8.96811 -4.62733 -50.29780 -24.60390 15.65660 18.49120 37.10660 2.29374 -27.09370 -31.55200 -3.68417 0.98495 5.57323 -36.44620 12.45460 
16.79390 94.29880 -4.00636 -8.64755 -11.29210 -30.83530 -1.40322 10.71740 -0.86120 -1.17511 21.26220 -1.50806 6.30712 -18.42540 16.39660 -0.00000 0.00000 -0.00000 -93.58230 -59.66500 -81.45090 -25.48440 37.78480 -78.70890 15.30270 8.39691 -7.51786 9.75851 0.73735 2.82747 87.76300 -0.27671 77.61130 8.28213 29.07370 92.59520 15.10810 11.23160 5.38933 26.82560 -12.96370 -16.25380 -30.62730 10.45690 79.54860 -8.68401 9.27924 1.20947 9.18939 -3.37172 -49.99230 -24.52830 15.82340 18.51790 37.39010 2.56664 -27.64770 -30.73530 -4.57537 0.70253 5.31983 -35.62940 12.08300 
16.89530 93.75580 -3.16723 -8.85164 -10.98550 -29.99360 -0.10380 10.43360 -0.86190 -1.06904 20.98430 -1.32652 5.95792 -18.38100 15.58610 -0.00000 0.00000 -0.00000 -92.19320 -58.98010 -80.42970 -25.24690 37.45960 -78.80670 15.09700 8.43445 -7.39007 9.82106 0.78046 3.13909 88.04880 -0.07033 77.50220 9.36834 28.45900 90.78020 14.66930 11.19980 5.43005 26.81040 -14.91210 -15.62380 -30.49920 12.52890 79.21050 -10.89740 7.27040 1.35971 9.44473 -1.89121 -49.65810 -24.23470 15.70020 18.42400 37.71900 3.81369 -28.63760 -29.93940 -5.81951 0.33667 5.23443 -35.48740 11.79840 
17.03580 93.09130 -2.19467 -9.15015 -10.74190 -29.15700 1.30434 10.11730 -0.82489 -0.88794 20.68760 -1.11633 5.54775 -18.32840 14.71940 -0.00000 0.00000 -0.00000 -90.96710 -58.33850 -79.54990 -25.10510 37.19760 -78.88290 14.72760 8.50477 -7.12681 9.79502 0.83111 3.53777 88.44300 0.13047 77.44110 10.26680 27.75810 89.07990 14.15990 11.16780 5.51826 26.76840 -16.97810 -15.17890 -30.40250 14.91270 79.28370 -13.19780 5.41300 1.45975 9.74458 0.06018 -49.11580 -23.93180 15.64870 18.32430 38.07790 5.27213 -29.77340 -29.33400 -7.15948 -0.03623 5.21281 -35.68600 11.46660 
17.22880 92.32930 -1.10435 -9.60216 -10.52640 -28.32480 2.87156 9.75933 -0.74624 -0.65361 20.39390 -0.86737 5.16461 -18.28340 13.84620 -0.00000 0.00000 -0.00000 -89.63200 -57.64330 -78.59600 -25.09850 36.81130 -78.91470 14.22980 8.59187 -6.81318 9.67394 0.88177 3.97528 88.96500 0.29923 77.46460 10.72960 27.02780 87.68710 13.62810 11.13750 5.64166 26.75800 -19.16210 -14.92550 -30.39170 17.63800 80.21830 -15.67200 3.77298 1.53162 10.09410 2.74994 -48.23860 -23.55960 15.73260 18.15240 38.45000 6.85839 -30.81580 -28.76600 -8.65089 -0.43557 5.12865 -35.72840 10.98610 
